<svg xmlns="http://www.w3.org/2000/svg" viewBox="0 0 1200 520" role="img" aria-labelledby="title desc"><title id="title">AllWeatherOS 금융 자산배분 일러스트</title><desc id="desc">계절별 포트폴리오, ETF 차트, 금과 채권을 상징하는 공익 금융 이미지</desc><defs><linearGradient id="bg" x1="0" y1="0" x2="1" y2="1"><stop offset="0" stop-color="#e8fff7"/><stop offset=".55" stop-color="#fbfbfd"/><stop offset="1" stop-color="#eef4ff"/></linearGradient><filter id="shadow" x="-20%" y="-20%" width="140%" height="150%"><feDropShadow dx="0" dy="30" stdDeviation="28" flood-color="#0f766e" flood-opacity=".15"/></filter></defs><rect width="1200" height="520" rx="54" fill="url(#bg)"/><circle cx="250" cy="392" r="126" fill="#0f766e" opacity=".10"/><circle cx="944" cy="128" r="94" fill="#0071e3" opacity=".09"/><g filter="url(#shadow)"><rect x="198" y="88" width="804" height="342" rx="44" fill="#fff" opacity=".72" stroke="#fff"/></g><g transform="translate(306 154)"><circle cx="120" cy="120" r="112" fill="none" stroke="#e5e7eb" stroke-width="32"/><path d="M120 8a112 112 0 0 1 106 148" fill="none" stroke="#0071e3" stroke-width="32" stroke-linecap="round"/><path d="M226 156a112 112 0 0 1-154 66" fill="none" stroke="#0f766e" stroke-width="32" stroke-linecap="round"/><path d="M72 222A112 112 0 0 1 120 8" fill="none" stroke="#f5b301" stroke-width="32" stroke-linecap="round"/><text x="120" y="114" text-anchor="middle" font-family="-apple-system,BlinkMacSystemFont,Noto Sans KR,sans-serif" font-size="28" font-weight="800" fill="#1d1d1f">4계절</text><text x="120" y="148" text-anchor="middle" font-family="-apple-system,BlinkMacSystemFont,Noto Sans KR,sans-serif" font-size="18" font-weight="700" fill="#6e6e73">Portfolio</text></g><g transform="translate(604 160)"><rect x="0" y="0" width="304" height="214" rx="28" fill="#1d1d1f" opacity=".86"/><path d="M38 160L92 116l54 24 64-86 56 38" fill="none" stroke="#34c759" stroke-width="12" stroke-linecap="round" stroke-linejoin="round"/><g fill="#fff" opacity=".18"><rect x="38" y="42" width="222" height="2"/><rect x="38" y="92" width="222" height="2"/><rect x="38" y="142" width="222" height="2"/></g><circle cx="92" cy="116" r="10" fill="#34c759"/><circle cx="210" cy="54" r="10" fill="#f5b301"/></g></svg>